<svg width="224" height="50" viewBox="0 0 224 50" fill="none" xmlns="http://www.w3.org/2000/svg">
<foreignObject x="-10" y="-10" width="244" height="70"><div xmlns="http://www.w3.org/1999/xhtml" style="backdrop-filter:blur(5px);clip-path:url(#bgblur_0_485_12801_clip_path);height:100%;width:100%"></div></foreignObject><g data-figma-bg-blur-radius="10">
<path d="M0 25C0 11.1929 11.1929 0 25 0H199C212.807 0 224 11.1929 224 25C224 38.8071 212.807 50 199 50H25C11.1929 50 0 38.8071 0 25Z" fill="url(#paint0_linear_485_12801)" fill-opacity="0.3"/>
<path d="M25 1.5H199C211.979 1.5 222.5 12.0213 222.5 25C222.5 37.9787 211.979 48.5 199 48.5H25C12.0213 48.5 1.5 37.9787 1.5 25C1.5 12.0213 12.0213 1.5 25 1.5Z" stroke="white" stroke-opacity="0.8" stroke-width="3"/>
<path d="M22.38 37.02L22.56 26.64H24.86L25.04 37.02H22.38ZM22.38 24.92V22.12H25.04V24.92H22.38ZM35.7819 33.24C34.8352 33.24 33.9552 33.0667 33.1419 32.72C32.3419 32.3733 31.6485 31.8933 31.0619 31.28C30.4885 30.6533 30.0685 29.9267 29.8019 29.1L32.0619 28.12C32.4219 28.9733 32.9419 29.6467 33.6219 30.14C34.3019 30.62 35.0685 30.86 35.9219 30.86C36.4019 30.86 36.8152 30.7867 37.1619 30.64C37.5219 30.48 37.7952 30.2667 37.9819 30C38.1819 29.7333 38.2819 29.4133 38.2819 29.04C38.2819 28.6 38.1485 28.24 37.8819 27.96C37.6285 27.6667 37.2419 27.44 36.7219 27.28L33.8619 26.36C32.7019 26 31.8285 25.46 31.2419 24.74C30.6552 24.02 30.3619 23.1733 30.3619 22.2C30.3619 21.3467 30.5685 20.5933 30.9819 19.94C31.4085 19.2867 31.9952 18.78 32.7419 18.42C33.5019 18.0467 34.3685 17.86 35.3419 17.86C36.2352 17.86 37.0552 18.02 37.8019 18.34C38.5485 18.6467 39.1885 19.08 39.7219 19.64C40.2685 20.1867 40.6752 20.8333 40.9419 21.58L38.7019 22.58C38.4085 21.8333 37.9685 21.26 37.3819 20.86C36.7952 20.4467 36.1152 20.24 35.3419 20.24C34.8885 20.24 34.4885 20.32 34.1419 20.48C33.7952 20.6267 33.5219 20.84 33.3219 21.12C33.1352 21.3867 33.0419 21.7067 33.0419 22.08C33.0419 22.4933 33.1752 22.86 33.4419 23.18C33.7085 23.4867 34.1152 23.7267 34.6619 23.9L37.4019 24.76C38.5885 25.1467 39.4752 25.68 40.0619 26.36C40.6619 27.04 40.9619 27.88 40.9619 28.88C40.9619 29.7333 40.7419 30.4867 40.3019 31.14C39.8619 31.7933 39.2552 32.3067 38.4819 32.68C37.7085 33.0533 36.8085 33.24 35.7819 33.24ZM43.6544 33L48.7944 18.1H52.3144L57.4544 33H54.4944L53.4344 29.8H47.6744L46.5944 33H43.6544ZM48.4544 27.4H52.6544L50.1744 19.98H50.9344L48.4544 27.4ZM63.7942 33L58.5942 18.1H61.5542L65.6342 30.44H65.0542L69.1342 18.1H72.0942L66.9142 33H63.7942ZM75.3595 33V18.1H85.2595V20.5H78.0795V24.32H84.8595V26.72H78.0795V30.6H85.2595V33H75.3595ZM96.6487 33V20.5H92.7887V18.1H103.189V20.5H99.3887V33H96.6487ZM106.449 33V18.1H109.169V24.6H115.509V18.1H118.249V33H115.509V27H109.169V33H106.449ZM122.717 33V18.1H132.617V20.5H125.437V24.32H132.217V26.72H125.437V30.6H132.617V33H122.717ZM141.366 33V18.1H146.226C147.799 18.1 149.166 18.42 150.326 19.06C151.499 19.6867 152.406 20.56 153.046 21.68C153.686 22.7867 154.006 24.0733 154.006 25.54C154.006 26.9933 153.686 28.2867 153.046 29.42C152.406 30.54 151.499 31.42 150.326 32.06C149.166 32.6867 147.799 33 146.226 33H141.366ZM144.086 30.6H146.286C147.299 30.6 148.172 30.3933 148.906 29.98C149.652 29.5533 150.232 28.9667 150.646 28.22C151.059 27.46 151.266 26.5667 151.266 25.54C151.266 24.5 151.059 23.6067 150.646 22.86C150.232 22.1133 149.652 21.5333 148.906 21.12C148.172 20.7067 147.299 20.5 146.286 20.5H144.086V30.6ZM155.945 33L161.085 18.1H164.605L169.745 33H166.785L165.725 29.8H159.965L158.885 33H155.945ZM160.745 27.4H164.945L162.465 19.98H163.225L160.745 27.4ZM174.647 33V20.5H170.787V18.1H181.187V20.5H177.387V33H174.647ZM184.447 33V18.1H194.347V20.5H187.167V24.32H193.947V26.72H187.167V30.6H194.347V33H184.447ZM199.062 28.48L198.882 18.1H201.542L201.362 28.48H199.062ZM198.882 33V30.2H201.542V33H198.882Z" fill="white"/>
</g>
<defs>
<clipPath id="bgblur_0_485_12801_clip_path" transform="translate(10 10)"><path d="M0 25C0 11.1929 11.1929 0 25 0H199C212.807 0 224 11.1929 224 25C224 38.8071 212.807 50 199 50H25C11.1929 50 0 38.8071 0 25Z"/>
</clipPath><linearGradient id="paint0_linear_485_12801" x1="31.5133" y1="0.0223604" x2="50.5804" y2="77.4355" gradientUnits="userSpaceOnUse">
<stop stop-color="#437AEF"/>
<stop offset="1" stop-color="#D3DFFB" stop-opacity="0.5"/>
</linearGradient>
</defs>
</svg>
