<svg width="956" height="851" viewBox="0 0 956 851" fill="none" xmlns="http://www.w3.org/2000/svg">
<foreignObject x="-18.4078" y="-18.4078" width="992.183" height="887.258"><div xmlns="http://www.w3.org/1999/xhtml" style="backdrop-filter:blur(9.2px);clip-path:url(#bgblur_0_647_9060_clip_path);height:100%;width:100%"></div></foreignObject><g data-figma-bg-blur-radius="18.4078">
<path d="M0.000617047 129.234L14.1234 22.2624C15.8054 9.52206 26.6672 0 39.5181 0H473.693C485.051 0 495.052 7.47883 498.263 18.373L528.073 119.507H929.751C943.898 119.507 955.367 130.975 955.367 145.122V824.827C955.367 838.974 943.898 850.442 929.751 850.442H25.6151C11.4683 850.442 9.81198e-06 838.974 2.19157e-05 824.827L0.000617047 129.234Z" fill="url(#paint0_linear_647_9060)" fill-opacity="0.3"/>
<path d="M39.5186 1.5H473.693C484.386 1.50001 493.801 8.54084 496.824 18.7969L526.635 119.931L526.951 121.007H929.751C943.069 121.007 953.866 131.804 953.866 145.122V824.827C953.866 838.145 943.069 848.942 929.751 848.942H25.6152C12.2969 848.942 1.5002 838.145 1.5 824.827V129.325L15.6104 22.459C17.1939 10.4647 27.4202 1.5 39.5186 1.5Z" stroke="white" stroke-opacity="0.8" stroke-width="3"/>
</g>
<defs>
<clipPath id="bgblur_0_647_9060_clip_path" transform="translate(18.4078 18.4078)"><path d="M0.000617047 129.234L14.1234 22.2624C15.8054 9.52206 26.6672 0 39.5181 0H473.693C485.051 0 495.052 7.47883 498.263 18.373L528.073 119.507H929.751C943.898 119.507 955.367 130.975 955.367 145.122V824.827C955.367 838.974 943.898 850.442 929.751 850.442H25.6151C11.4683 850.442 9.81198e-06 838.974 2.19157e-05 824.827L0.000617047 129.234Z"/>
</clipPath><linearGradient id="paint0_linear_647_9060" x1="134.405" y1="0.380325" x2="832.586" y2="711.176" gradientUnits="userSpaceOnUse">
<stop stop-color="#437AEF"/>
<stop offset="1" stop-color="#D3DFFB" stop-opacity="0.5"/>
</linearGradient>
</defs>
</svg>
