<svg width="310" height="119" viewBox="0 0 310 119" fill="none" xmlns="http://www.w3.org/2000/svg">
<g clip-path="url(#clip0_592_729)">
<path d="M111.178 35.2655H133.8V40.7817L121.999 42.69C118.612 43.211 115.786 44.0969 113.52 45.3476C111.254 46.5975 109.574 48.1485 108.479 49.9975C107.384 51.8472 106.838 53.9711 106.838 56.3673C106.838 58.9205 107.436 61.1224 108.635 62.9705C109.833 64.8202 111.552 66.2406 113.793 67.23C116.032 68.2194 118.69 68.7149 121.765 68.7149C124.057 68.7149 126.142 68.4145 128.017 67.8163C129.893 67.2181 131.585 66.306 133.097 65.0807C133.917 64.4163 134.696 63.6459 135.441 62.7889L137.708 67.7773H145.523V25.1062H114.653L111.177 35.2655H111.178ZM132.59 55.4679C131.781 56.9019 130.648 58.0346 129.19 58.8679C127.73 59.702 126.036 60.1186 124.109 60.1186C122.65 60.1186 121.426 59.7546 120.436 59.024C119.446 58.2951 118.951 57.2794 118.951 55.9761C118.951 54.5693 119.393 53.4883 120.28 52.7331C121.165 51.9788 122.441 51.4433 124.109 51.1311L133.8 49.7234V50.7408C133.8 52.4599 133.396 54.0364 132.59 55.4687V55.4679Z" fill="#334155"/>
<path d="M207.822 26.1998C205.45 24.8456 202.729 24.1676 199.655 24.1676C196.164 24.1676 193.116 25.0017 190.511 26.6682C188.951 27.6669 187.611 28.9991 186.481 30.6511C185.598 29.1815 184.383 27.9147 182.814 26.8633C180.13 25.0662 177.017 24.1667 173.474 24.1667C170.139 24.1667 167.273 24.9482 164.877 26.5112C163.289 27.5464 161.716 28.5943 160.645 30.1301L158.39 25.1044H150.574V67.7755H162.297V42.8452C162.297 41.1787 162.597 39.7455 163.196 38.5466C163.794 37.3485 164.654 36.4109 165.775 35.7329C166.895 35.0566 168.21 34.7172 169.721 34.7172C171.232 34.7172 172.613 35.0566 173.707 35.7329C174.801 36.4109 175.647 37.3485 176.247 38.5466C176.845 39.7455 177.146 41.1778 177.146 42.8452V67.7755H188.869V42.8452C188.869 41.1787 189.168 39.7455 189.767 38.5466C190.365 37.3485 191.225 36.4109 192.346 35.7329C193.466 35.0566 194.781 34.7172 196.292 34.7172C197.804 34.7172 199.184 35.0566 200.278 35.7329C201.372 36.4109 202.218 37.3485 202.817 38.5466C203.416 39.7455 203.716 41.1778 203.716 42.8452V67.7755H215.439V40.3437C215.439 37.1134 214.761 34.287 213.407 31.8645C212.052 29.442 210.189 27.554 207.819 26.1981L207.822 26.1998Z" fill="#334155"/>
<path d="M254.669 27.1376C251.387 25.158 247.713 24.1678 243.649 24.1678C240.523 24.1678 237.748 24.7541 235.326 25.926C233.812 26.6582 232.496 27.5797 231.379 28.6887V10.0001L219.656 16.7212V67.7765H227.472L229.586 62.4903C231.087 64.5208 233.051 66.0634 235.483 67.1122C237.957 68.1796 240.653 68.7142 243.572 68.7142C247.74 68.7142 251.465 67.7248 254.748 65.7443C258.03 63.7648 260.621 61.0817 262.523 57.6945C264.425 54.308 265.376 50.5567 265.376 46.4406C265.376 42.3244 264.411 38.5078 262.484 35.1476C260.557 31.7875 257.952 29.1181 254.669 27.1368L254.669 27.1376ZM251.856 52.5372C250.918 54.3089 249.615 55.6903 247.948 56.6788C246.28 57.6699 244.353 58.1637 242.165 58.1637C239.977 58.1637 238.218 57.669 236.577 56.6788C234.936 55.6894 233.658 54.3089 232.747 52.5372C231.835 50.7663 231.379 48.735 231.379 46.4414C231.379 44.1479 231.835 42.1174 232.747 40.3457C233.658 38.5748 234.936 37.1943 236.577 36.2032C238.218 35.2138 240.08 34.7183 242.165 34.7183C244.353 34.7183 246.28 35.2266 247.948 36.2422C249.615 37.2579 250.918 38.6393 251.856 40.3847C252.793 42.1309 253.263 44.1496 253.263 46.4414C253.263 48.7333 252.793 50.7663 251.856 52.5372Z" fill="#334155"/>
<path d="M308.592 36.9457C307.655 34.4188 306.287 32.1914 304.49 30.2636C302.693 28.3366 300.491 26.8381 297.886 25.7698C295.28 24.7024 292.285 24.1678 288.898 24.1678C284.834 24.1678 281.187 25.1326 277.957 27.0596C274.726 28.9874 272.161 31.6195 270.259 34.9534C268.357 38.288 267.406 42.0919 267.406 46.3634C267.406 50.6348 268.318 54.2308 270.142 57.6173C271.964 61.0045 274.544 63.7011 277.879 65.7062C281.212 67.7129 285.147 68.715 289.68 68.715C292.597 68.715 295.28 68.2848 297.73 67.4253C300.178 66.5657 302.302 65.354 304.099 63.7911C305.896 62.2281 307.211 60.4046 308.045 58.3207L298.667 53.866C297.833 55.3254 296.674 56.4718 295.189 57.305C293.704 58.1391 291.919 58.5549 289.836 58.5549C287.542 58.5549 285.589 58.0466 283.974 57.0309C282.359 56.0153 281.161 54.5957 280.379 52.7714C279.977 51.8321 279.708 50.8147 279.568 49.7235H309.452C309.66 49.1508 309.803 48.4609 309.882 47.6523C309.96 46.8453 309.999 46.0248 309.999 45.1899C309.999 42.2201 309.53 39.4726 308.592 36.9448V36.9457ZM283.662 35.0314C285.12 34.042 286.866 33.5465 288.898 33.5465C290.931 33.5465 292.74 34.0548 294.174 35.0704C295.606 36.0861 296.609 37.4675 297.182 39.2129C297.382 39.8205 297.511 40.4602 297.577 41.128H279.88C280.015 40.5247 280.176 39.9469 280.379 39.4089C281.108 37.4819 282.203 36.0225 283.661 35.0323L283.662 35.0314Z" fill="#334155"/>
<path d="M96.1128 25.1062L87.4299 52.1502L78.7462 25.1062H65.791L80.3966 67.7765H94.4633L109.069 25.1062H96.1128Z" fill="#334155"/>
<path d="M27.9985 21.3888C18.5791 21.3888 0 39.9679 0 49.3873C0 58.8067 18.5791 71.4692 27.9985 71.4692C37.4179 71.4692 55.9971 58.8076 55.9971 49.3873C55.9971 39.9671 37.4179 21.3888 27.9985 21.3888ZM27.9985 62.8542C23.2884 62.8542 8.615 54.0975 8.615 49.3873C8.615 44.6772 23.2884 30.0038 27.9985 30.0038C32.7087 30.0038 47.3821 44.6772 47.3821 49.3873C47.3821 54.0975 32.7087 62.8542 27.9985 62.8542Z" fill="#334155"/>
<path d="M150.854 107.504L157.396 88.5417H161.875L168.416 107.504H164.65L163.3 103.432H155.97L154.595 107.504H150.854H150.854ZM156.964 100.378H162.309L159.152 90.9346H160.119L156.963 100.378H156.964Z" fill="#334155"/>
<path d="M170.273 107.504V88.5417H173.735V107.504H170.273Z" fill="#334155"/>
<path d="M183.075 107.505V95.4395H180.326V93.9885H183.075V92.6903C183.075 91.74 183.266 90.9339 183.648 90.272C184.03 89.6102 184.552 89.1053 185.214 88.7574C185.875 88.4095 186.604 88.2356 187.403 88.2356C187.589 88.2356 187.78 88.2483 187.976 88.2738C188.17 88.2992 188.336 88.3289 188.472 88.3629V89.7375C188.336 89.7035 188.175 89.6823 187.988 89.6738C187.802 89.6653 187.657 89.6611 187.556 89.6611C186.673 89.6611 185.96 89.9114 185.417 90.412C184.874 90.9127 184.603 91.6721 184.603 92.6903V93.9885H187.963V95.4395H184.603V107.505H183.075Z" fill="#334155"/>
<path d="M196.873 107.81C195.583 107.81 194.421 107.505 193.386 106.894C192.35 106.283 191.532 105.439 190.929 104.361C190.327 103.283 190.025 102.074 190.025 100.734C190.025 99.393 190.327 98.1881 190.929 97.119C191.532 96.0499 192.346 95.2098 193.373 94.5989C194.399 93.988 195.565 93.6825 196.873 93.6825C198.18 93.6825 199.324 93.988 200.36 94.5989C201.396 95.2098 202.209 96.0456 202.804 97.1063C203.398 98.1669 203.695 99.376 203.695 100.734C203.695 102.091 203.39 103.305 202.779 104.374C202.168 105.443 201.349 106.283 200.322 106.894C199.295 107.505 198.146 107.81 196.874 107.81H196.873ZM196.873 106.308C197.84 106.308 198.718 106.067 199.508 105.583C200.297 105.099 200.92 104.433 201.379 103.585C201.837 102.736 202.066 101.787 202.066 100.734C202.066 99.6807 201.837 98.7397 201.379 97.9081C200.92 97.0766 200.301 96.4147 199.52 95.9226C198.74 95.4304 197.857 95.1844 196.873 95.1844C195.889 95.1844 195.002 95.4262 194.213 95.9099C193.424 96.3935 192.8 97.0554 192.342 97.8954C191.884 98.7354 191.655 99.6815 191.655 100.734C191.655 101.786 191.888 102.736 192.355 103.585C192.821 104.433 193.445 105.099 194.226 105.583C195.006 106.067 195.889 106.308 196.873 106.308Z" fill="#334155"/>
<path d="M207.105 107.505V93.9896H208.633V96.5097L208.353 96.2806C208.641 95.5169 209.138 94.9145 209.842 94.4732C210.545 94.032 211.382 93.8114 212.349 93.8114H213.215V95.3387H212.171C211.068 95.3387 210.203 95.6909 209.575 96.3951C208.947 97.0994 208.633 98.0455 208.633 99.2334V107.506H207.105V107.505Z" fill="#334155"/>
<path d="M228.129 107.81C226.771 107.81 225.516 107.564 224.362 107.072C223.208 106.58 222.199 105.892 221.333 105.01C220.468 104.127 219.793 103.092 219.309 101.904C218.826 100.716 218.584 99.4191 218.584 98.0097C218.584 96.6003 218.817 95.2987 219.284 94.1031C219.751 92.9067 220.413 91.8723 221.27 90.9975C222.127 90.1235 223.132 89.4447 224.286 88.9611C225.44 88.4774 226.695 88.2356 228.053 88.2356C229.41 88.2356 230.627 88.4647 231.705 88.9229C232.783 89.3811 233.694 89.9878 234.442 90.743C235.189 91.4981 235.723 92.3255 236.046 93.2249L232.966 94.7013C232.609 93.717 232.007 92.9194 231.158 92.3085C230.31 91.6975 229.274 91.3921 228.053 91.3921C226.831 91.3921 225.817 91.6721 224.91 92.2321C224.002 92.7921 223.297 93.5643 222.797 94.5486C222.296 95.5328 222.046 96.6868 222.046 98.0105C222.046 99.3342 222.304 100.492 222.822 101.485C223.34 102.478 224.057 103.254 224.973 103.814C225.89 104.374 226.942 104.654 228.13 104.654C229.097 104.654 229.988 104.463 230.803 104.082C231.617 103.7 232.27 103.157 232.763 102.453C233.255 101.748 233.501 100.912 233.501 99.9451V98.4942L235.079 99.8688H228.054V96.9414H236.963V98.8506C236.963 100.31 236.717 101.6 236.225 102.719C235.733 103.839 235.066 104.777 234.226 105.532C233.386 106.287 232.44 106.855 231.388 107.237C230.336 107.619 229.25 107.81 228.13 107.81H228.129Z" fill="#334155"/>
<path d="M239.174 107.505V93.6586H242.304V96.7387L242.049 96.2805C242.371 95.2453 242.877 94.5241 243.564 94.1168C244.251 93.7095 245.079 93.5059 246.046 93.5059H246.861V96.4587H245.664C244.714 96.4587 243.95 96.7514 243.373 97.3369C242.796 97.9224 242.508 98.7412 242.508 99.7934V107.506H239.174V107.505Z" fill="#334155"/>
<path d="M255.209 107.81C253.852 107.81 252.617 107.496 251.506 106.868C250.395 106.24 249.512 105.383 248.859 104.297C248.206 103.211 247.879 101.972 247.879 100.58C247.879 99.1888 248.206 97.9499 248.859 96.8647C249.512 95.7786 250.39 94.9216 251.494 94.2937C252.597 93.6658 253.835 93.3518 255.209 93.3518C256.583 93.3518 257.796 93.6658 258.9 94.2937C260.003 94.9216 260.882 95.7743 261.535 96.8519C262.188 97.9296 262.515 99.1726 262.515 100.581C262.515 101.99 262.184 103.212 261.522 104.298C260.86 105.384 259.978 106.241 258.875 106.869C257.772 107.497 256.55 107.811 255.209 107.811V107.81ZM255.209 104.755C255.956 104.755 256.613 104.577 257.182 104.22C257.751 103.864 258.2 103.368 258.531 102.731C258.862 102.095 259.028 101.378 259.028 100.58C259.028 99.7827 258.862 99.0496 258.531 98.4293C258.2 97.8099 257.751 97.3178 257.182 96.9529C256.614 96.5881 255.956 96.4056 255.209 96.4056C254.463 96.4056 253.775 96.5881 253.198 96.9529C252.621 97.3178 252.167 97.8099 251.836 98.4293C251.505 99.0488 251.34 99.7658 251.34 100.58C251.34 101.395 251.505 102.095 251.836 102.731C252.167 103.368 252.621 103.864 253.198 104.22C253.774 104.577 254.446 104.755 255.209 104.755Z" fill="#334155"/>
<path d="M268.012 107.505L263.252 93.6586H266.765L270.252 104.171L269.03 104.145L272.746 93.6586H275.699L279.39 104.145L278.168 104.171L281.655 93.6586H285.167L280.408 107.505H277.43L273.662 96.5342H274.782L270.964 107.505H268.012Z" fill="#334155"/>
<path d="M293.057 107.657C291.496 107.657 290.286 107.229 289.43 106.372C288.573 105.515 288.145 104.306 288.145 102.744V96.6359H285.752V93.6576H286.007C286.685 93.6576 287.211 93.4794 287.585 93.123C287.958 92.7666 288.145 92.249 288.145 91.5702V90.5011H291.479V93.6576H294.661V96.6359H291.479V102.566C291.479 103.024 291.559 103.415 291.72 103.737C291.882 104.06 292.136 104.306 292.484 104.475C292.832 104.645 293.277 104.73 293.821 104.73C293.939 104.73 294.079 104.721 294.241 104.704C294.402 104.687 294.559 104.67 294.711 104.654V107.505C294.474 107.538 294.202 107.572 293.897 107.606C293.591 107.64 293.311 107.657 293.057 107.657Z" fill="#334155"/>
<path d="M297.004 107.504V88.2362H300.338V96.3811L299.88 95.8975C300.201 95.0659 300.732 94.4338 301.47 94.001C302.209 93.5683 303.07 93.3519 304.054 93.3519C305.039 93.3519 305.976 93.5725 306.765 94.0138C307.554 94.455 308.169 95.0702 308.611 95.8593C309.052 96.6484 309.273 97.5606 309.273 98.5958V107.504H305.939V99.3849C305.939 98.774 305.82 98.2479 305.582 97.8066C305.345 97.3654 305.018 97.0218 304.602 96.7757C304.187 96.5296 303.699 96.4066 303.139 96.4066C302.579 96.4066 302.112 96.5296 301.688 96.7757C301.263 97.0218 300.933 97.3654 300.695 97.8066C300.457 98.2479 300.339 98.774 300.339 99.3849V107.504H297.005H297.004Z" fill="#334155"/>
</g>
<defs>
<clipPath id="clip0_592_729">
<rect width="310" height="97.8103" fill="white" transform="translate(0 10)"/>
</clipPath>
</defs>
</svg>
