<svg width="343" height="47" viewBox="0 0 343 47" fill="none" xmlns="http://www.w3.org/2000/svg">
<path d="M340.079 29.2368C338.636 27.6575 336.613 26.4986 334.011 25.7487L328.808 24.2148C328.171 24.0216 327.524 23.7717 326.853 23.4763C326.183 23.1809 325.615 22.7491 325.138 22.1697C324.661 21.6016 324.433 20.8631 324.433 19.9541C324.433 18.727 324.911 17.7158 325.854 16.9092C326.797 16.1025 328.08 15.6934 329.694 15.6934C331.466 15.6934 333.068 16.182 334.489 17.1478C335.909 18.1135 336.977 19.4315 337.681 21.0789L342.18 19.0111C341.237 16.4434 339.647 14.455 337.42 13.0348C335.193 11.6146 332.671 10.9102 329.876 10.9102C327.785 10.9102 325.899 11.3078 324.229 12.0918C322.547 12.8757 321.229 13.9778 320.264 15.3753C319.298 16.7728 318.809 18.4203 318.809 20.3177C318.809 22.3742 319.468 24.158 320.786 25.7032C322.104 27.237 324.206 28.43 327.092 29.2481L331.887 30.6115C332.512 30.7706 333.205 31.0206 333.955 31.35C334.704 31.6909 335.341 32.134 335.875 32.7135C336.409 33.2816 336.67 34.0427 336.67 34.9971C336.67 36.3378 336.102 37.4173 334.954 38.2467C333.807 39.0761 332.375 39.4851 330.637 39.4851C328.705 39.4851 326.944 38.9284 325.376 37.8263C323.797 36.7242 322.559 35.2244 321.65 33.327L317.275 35.4516C318.264 38.133 319.934 40.269 322.309 41.837C324.672 43.4163 327.456 44.2002 330.648 44.2002C332.932 44.2002 334.943 43.8026 336.681 43.0186C338.42 42.2347 339.772 41.1212 340.76 39.7009C341.749 38.2807 342.237 36.6787 342.237 34.9063C342.237 32.7021 341.522 30.8047 340.079 29.2254V29.2368Z" fill="white"/>
<path d="M258.273 43.0609C259.875 43.8335 261.716 44.2198 263.807 44.2198C265.624 44.2198 267.295 43.9471 268.84 43.3904C270.374 42.8337 271.714 42.0838 272.862 41.1408C273.51 40.6068 274.078 40.016 274.578 39.3797L276.554 43.5153H279.963V11.6228H258.092L256.308 16.8833H274.464V23.3141L263.579 25.1093C261.216 25.5069 259.25 26.1772 257.694 27.1203C256.137 28.0633 254.99 29.2223 254.263 30.5857C253.535 31.9491 253.172 33.4715 253.172 35.1758C253.172 36.8801 253.626 38.5162 254.535 39.8796C255.444 41.243 256.694 42.311 258.296 43.0723L258.273 43.0609ZM260.353 31.4946C261.284 30.5516 262.773 29.8925 264.818 29.5403L274.464 27.927V29.9607C274.464 31.7332 274.044 33.3579 273.191 34.8122C272.339 36.2665 271.18 37.4254 269.703 38.2776C268.226 39.1297 266.477 39.5501 264.466 39.5501C262.886 39.5501 261.58 39.1184 260.534 38.2435C259.489 37.38 258.966 36.2892 258.966 34.994C258.966 33.6192 259.432 32.449 260.353 31.506V31.4946Z" fill="white"/>
<path d="M284.691 19.0197C283.305 21.5306 282.623 24.3711 282.623 27.5751C282.623 30.7792 283.316 33.5174 284.691 36.0397C286.077 38.562 287.952 40.5617 290.338 42.016C292.724 43.4703 295.439 44.2088 298.473 44.2088C301.041 44.2088 303.37 43.6407 305.483 42.4932C307.165 41.5843 308.528 40.3685 309.596 38.8574L311.789 43.493H314.981V3.14724L309.482 0V15.9407C308.403 14.5886 307.074 13.4638 305.46 12.5775C303.415 11.4527 301.063 10.896 298.416 10.896C295.416 10.896 292.724 11.6232 290.338 13.0888C287.952 14.5431 286.066 16.5314 284.691 19.031V19.0197ZM288.474 27.5751C288.474 25.3709 288.917 23.4281 289.804 21.7465C290.69 20.065 291.928 18.7243 293.496 17.7245C295.076 16.7133 296.871 16.2133 298.882 16.2133C300.893 16.2133 302.699 16.7019 304.301 17.6903C305.903 18.6788 307.165 20.0309 308.085 21.7465C309.017 23.4622 309.471 25.405 309.471 27.5751C309.471 29.7452 309.005 31.6313 308.085 33.347C307.153 35.0626 305.892 36.4147 304.301 37.4031C302.699 38.3916 300.904 38.8802 298.882 38.8802C296.859 38.8802 295.076 38.3916 293.496 37.4031C291.917 36.4147 290.69 35.0626 289.804 33.347C288.917 31.6313 288.474 29.7112 288.474 27.5751Z" fill="white"/>
<path d="M42.1157 44.1982C39.7979 44.1982 37.7983 43.8233 36.1167 43.0847C34.4352 42.3349 33.1399 41.2668 32.231 39.8807C31.3334 38.4946 30.8789 36.8357 30.8789 34.9156C30.8789 33.1091 31.2879 31.5184 32.1173 30.1209C32.9354 28.7347 34.2079 27.5644 35.9122 26.6214C37.6165 25.6784 39.7411 25.0195 42.2975 24.6218L52.1141 23.0311V29.78L43.8768 30.973C42.627 31.2116 41.6613 31.6093 40.9909 32.1774C40.3206 32.7454 39.9911 33.5635 39.9911 34.6202C39.9911 35.5973 40.366 36.3698 41.1045 36.9152C41.8544 37.4606 42.7747 37.7333 43.8655 37.7333C45.3198 37.7333 46.5923 37.4151 47.683 36.7902C48.7851 36.1653 49.6373 35.3132 50.2394 34.2338C50.8416 33.1545 51.1484 31.9728 51.1484 30.6776V19.0317H34.1284L36.7416 11.3853H59.9765V43.4937H54.0911L51.7392 38.3128L53.7389 37.9605C52.7958 39.3694 51.7619 40.5396 50.6257 41.4599C49.4896 42.3802 48.217 43.0733 46.8082 43.5164C45.3993 43.9709 43.8314 44.1982 42.1044 44.1982H42.1157Z" fill="white"/>
<path d="M63.8047 43.4844V11.376H69.6901L72.7692 18.2385L70.4968 17.25C70.9626 14.7845 72.7692 13.6029 74.5757 12.4212C76.3822 11.2396 78.541 10.6602 81.0406 10.6602C83.7106 10.6602 86.0511 11.3419 88.0735 12.694C90.0959 14.046 91.3571 15.8639 91.8684 18.1362L89.3347 18.3749C90.3913 15.7503 91.9024 13.8074 93.868 12.5576C95.8336 11.3078 98.1174 10.6715 100.753 10.6715C103.071 10.6715 105.116 11.1828 106.9 12.2053C108.684 13.2279 110.081 14.6481 111.104 16.466C112.126 18.2839 112.638 20.42 112.638 22.8514V43.4958H103.821V24.7375C103.821 23.4877 103.594 22.4083 103.139 21.4994C102.685 20.6018 102.049 19.8973 101.23 19.386C100.412 18.8747 99.4126 18.6248 98.231 18.6248C97.0493 18.6248 96.1063 18.8747 95.2655 19.386C94.4248 19.8973 93.7771 20.6018 93.3227 21.4994C92.8682 22.397 92.641 23.4763 92.641 24.7375V43.4958H83.8242V24.7375C83.8242 23.4877 83.597 22.4083 83.1425 21.4994C82.688 20.6018 82.0518 19.8973 81.2337 19.386C80.4157 18.8747 79.4158 18.6248 78.2342 18.6248C77.0526 18.6248 76.1095 18.8747 75.2688 19.386C74.428 19.8973 73.7804 20.6018 73.3259 21.4994C72.8714 22.397 72.6442 23.4763 72.6442 24.7375V43.4958H63.8274L63.8047 43.4844Z" fill="white"/>
<path d="M133.794 44.1982C131.601 44.1982 129.567 43.8005 127.704 42.9938C125.84 42.1871 124.341 41.0055 123.204 39.4376L124.022 37.6197L121.671 43.5051H115.785V5.07946L124.602 0.0234375V17.5093L123.25 15.7482C124.307 14.1462 125.749 12.8964 127.567 12.0101C129.385 11.1239 131.476 10.6922 133.828 10.6922C136.884 10.6922 139.645 11.442 142.122 12.9304C144.587 14.4188 146.553 16.4299 148.007 18.9636C149.462 21.4972 150.189 24.3264 150.189 27.4622C150.189 30.5981 149.473 33.3817 148.041 35.9267C146.61 38.4718 144.656 40.4942 142.19 41.9826C139.724 43.471 136.918 44.2209 133.782 44.2209L133.794 44.1982ZM132.737 36.2563C134.384 36.2563 135.839 35.8813 137.089 35.1428C138.338 34.3929 139.327 33.359 140.031 32.0296C140.736 30.7003 141.088 29.1665 141.088 27.4395C141.088 25.7125 140.736 24.19 140.031 22.8834C139.327 21.5654 138.35 20.5315 137.089 19.7703C135.839 19.009 134.384 18.6227 132.737 18.6227C131.09 18.6227 129.772 18.9976 128.533 19.7362C127.295 20.486 126.34 21.52 125.647 22.8493C124.965 24.1787 124.613 25.7125 124.613 27.4395C124.613 29.1665 124.954 30.6889 125.647 32.0296C126.329 33.359 127.295 34.4042 128.533 35.1428C129.772 35.8926 131.169 36.2563 132.737 36.2563Z" fill="white"/>
<path d="M168.491 44.2013C165.083 44.2013 162.117 43.4515 159.606 41.9403C157.095 40.4292 155.152 38.4068 153.789 35.8504C152.414 33.3053 151.732 30.4763 151.732 27.3859C151.732 24.2954 152.448 21.3073 153.88 18.7963C155.311 16.2854 157.243 14.3084 159.674 12.8541C162.106 11.3997 164.855 10.6726 167.912 10.6726C170.457 10.6726 172.718 11.0703 174.672 11.877C176.638 12.6836 178.285 13.8084 179.637 15.2628C180.989 16.7171 182.023 18.3873 182.727 20.2961C183.432 22.1935 183.784 24.2613 183.784 26.4996C183.784 27.1245 183.75 27.7494 183.693 28.3516C183.636 28.9651 183.523 29.4764 183.375 29.9081H159.322V23.4433H178.376L174.195 26.4996C174.581 24.8181 174.57 23.3183 174.138 22.0004C173.706 20.6824 172.956 19.6484 171.877 18.8872C170.798 18.1259 169.48 17.7397 167.912 17.7397C166.344 17.7397 165.071 18.1146 163.969 18.8531C162.867 19.603 162.049 20.6937 161.504 22.148C160.958 23.6023 160.742 25.3634 160.856 27.4427C160.697 29.2492 160.913 30.8398 161.504 32.2033C162.094 33.578 162.992 34.6461 164.208 35.4073C165.423 36.1685 166.889 36.5548 168.616 36.5548C170.184 36.5548 171.525 36.2367 172.65 35.6118C173.763 34.9869 174.638 34.1234 175.263 33.0213L182.318 36.373C181.694 37.9409 180.705 39.3157 179.353 40.486C178.001 41.6676 176.399 42.5766 174.558 43.2242C172.718 43.8718 170.695 44.1899 168.502 44.1899L168.491 44.2013Z" fill="white"/>
<path d="M16.2815 31.7236L9.74843 11.3745H0L10.9869 43.483H21.5761L32.5743 11.3745H22.8145L16.2815 31.7236Z" fill="white"/>
<path d="M218.198 46.6538C210.654 46.6538 195.781 36.5645 195.781 29.0657C195.781 21.5669 210.654 6.76245 218.198 6.76245C225.742 6.76245 240.615 21.5555 240.615 29.0657C240.615 36.5758 225.742 46.6538 218.198 46.6538ZM218.198 13.625C214.426 13.625 202.678 25.3163 202.678 29.0657C202.678 32.8151 214.426 39.7912 218.198 39.7912C221.97 39.7912 233.718 32.8151 233.718 29.0657C233.718 25.3163 221.97 13.625 218.198 13.625Z" fill="#F96F07"/>
</svg>
