<svg width="247" height="310" viewBox="0 0 247 310" fill="none" xmlns="http://www.w3.org/2000/svg">
<path d="M123.336 304.3C113.759 304.3 101.562 301.209 88.062 295.367C75.0214 289.725 61.6134 281.905 49.2862 272.755C36.4456 263.227 25.6155 252.84 17.963 242.724C13.8611 237.298 10.6834 231.964 8.5217 226.867C6.23028 221.463 5.06836 216.286 5.06836 211.487C5.06836 202.137 9.5269 189.994 17.9576 176.38C25.783 163.74 36.6132 150.402 49.2754 137.81C61.9323 125.218 75.3403 114.442 88.0458 106.66C101.735 98.2723 113.938 93.8408 123.336 93.8408C132.734 93.8408 144.937 98.2723 158.626 106.66C171.331 114.447 184.739 125.218 197.396 137.81C210.053 150.402 220.883 163.74 228.709 176.38C237.139 189.994 241.598 202.137 241.598 211.487C241.598 216.286 240.436 221.463 238.144 226.867C235.983 231.958 232.81 237.292 228.703 242.724C221.051 252.846 210.22 263.233 197.38 272.755C185.053 281.905 171.645 289.719 158.604 295.367C145.104 301.209 132.907 304.3 123.33 304.3H123.336ZM123.336 94.0624C113.976 94.0624 101.816 98.4831 88.1593 106.849C75.47 114.626 62.0728 125.386 49.4267 137.967C36.7807 150.548 25.9613 163.87 18.1413 176.499C9.73766 190.08 5.28994 202.181 5.28994 211.492C5.28994 216.264 6.44645 221.409 8.72706 226.786C10.878 231.861 14.0449 237.179 18.1359 242.594C25.7776 252.7 36.5916 263.071 49.4105 272.582C61.7269 281.721 75.1187 289.53 88.1431 295.167C101.616 300.998 113.786 304.084 123.33 304.084C132.874 304.084 145.045 301.003 158.518 295.167C171.542 289.53 184.934 281.721 197.25 272.582C210.075 263.065 220.889 252.7 228.525 242.594C232.616 237.179 235.783 231.861 237.934 226.786C240.214 221.409 241.371 216.264 241.371 211.492C241.371 202.181 236.923 190.08 228.514 176.505C220.694 163.88 209.88 150.553 197.229 137.972C184.583 125.391 171.185 114.631 158.496 106.854C144.845 98.4885 132.68 94.0678 123.32 94.0678L123.336 94.0624Z" fill="#437AEF" fill-opacity="0.3"/>
<path d="M123.336 259.914C113.759 259.914 101.562 256.823 88.062 250.981C75.0214 245.339 61.6134 237.519 49.2862 228.37C36.4456 218.842 25.6155 208.455 17.963 198.338C13.8611 192.912 10.6834 187.578 8.5217 182.482C6.23028 177.078 5.06836 171.9 5.06836 167.101C5.06836 157.752 9.5269 145.608 17.9576 131.995C25.783 119.354 36.6132 106.017 49.2754 93.4246C61.9323 80.8326 75.3403 70.0565 88.0458 62.2743C101.735 53.8868 113.938 49.4553 123.336 49.4553C132.734 49.4553 144.937 53.8868 158.626 62.2743C171.331 70.0619 184.739 80.8326 197.396 93.4246C210.053 106.017 220.883 119.354 228.709 131.995C237.139 145.608 241.598 157.752 241.598 167.101C241.598 171.9 240.436 177.078 238.144 182.482C235.983 187.573 232.81 192.907 228.703 198.338C221.051 208.46 210.22 218.847 197.38 228.37C185.053 237.519 171.645 245.334 158.604 250.981C145.104 256.823 132.907 259.914 123.33 259.914H123.336ZM123.336 49.6769C113.976 49.6769 101.816 54.0976 88.1593 62.4634C75.47 70.2402 62.0728 81.0001 49.4267 93.5813C36.7807 106.163 25.9613 119.484 18.1413 132.114C9.73766 145.695 5.28994 157.795 5.28994 167.107C5.28994 171.879 6.44645 177.024 8.72706 182.401C10.878 187.475 14.0449 192.793 18.1359 198.208C25.7776 208.314 36.5916 218.685 49.4105 228.197C61.7269 237.335 75.1187 245.145 88.1431 250.781C101.616 256.612 113.786 259.698 123.33 259.698C132.874 259.698 145.045 256.618 158.518 250.781C171.542 245.145 184.934 237.335 197.25 228.197C210.075 218.68 220.889 208.314 228.525 198.208C232.616 192.793 235.783 187.475 237.934 182.401C240.214 177.024 241.371 171.879 241.371 167.107C241.371 157.795 236.923 145.695 228.514 132.119C220.694 119.495 209.88 106.168 197.229 93.5867C184.577 81.0055 171.185 70.2456 158.496 62.4688C144.845 54.103 132.68 49.6823 123.32 49.6823L123.336 49.6769Z" fill="#437AEF" fill-opacity="0.3"/>
<path d="M123.336 215.528C113.759 215.528 101.562 212.437 88.062 206.595C75.0214 200.953 61.6134 193.133 49.2862 183.984C36.4456 174.456 25.6155 164.069 17.963 153.952C13.8611 148.526 10.6834 143.192 8.5217 138.096C6.23028 132.692 5.06836 127.514 5.06836 122.715C5.06836 113.366 9.5269 101.222 17.9576 87.609C25.783 74.9684 36.6132 61.6306 49.2754 49.0386C61.9323 36.4466 75.3403 25.6705 88.0458 17.8883C101.729 9.50085 113.938 5.06934 123.336 5.06934C132.734 5.06934 144.937 9.50085 158.626 17.8883C171.331 25.6759 184.739 36.4466 197.396 49.0386C210.053 61.6306 220.883 74.9684 228.709 87.609C237.139 101.222 241.598 113.366 241.598 122.715C241.598 127.514 240.436 132.692 238.144 138.096C235.983 143.187 232.81 148.521 228.703 153.952C221.051 164.074 210.22 174.461 197.38 183.984C185.053 193.133 171.645 200.948 158.604 206.595C145.104 212.437 132.907 215.528 123.33 215.528H123.336ZM123.336 5.29091C113.976 5.29091 101.816 9.71162 88.1593 18.0775C75.47 25.8542 62.0728 36.6142 49.4267 49.1953C36.7807 61.7765 25.9613 75.0981 18.1413 87.7279C9.73766 101.309 5.28994 113.409 5.28994 122.721C5.28994 127.493 6.44645 132.638 8.72706 138.015C10.878 143.089 14.0449 148.407 18.1359 153.822C25.7776 163.928 36.5916 174.299 49.4105 183.811C61.7269 192.949 75.1187 200.759 88.1431 206.395C101.616 212.226 113.786 215.312 123.33 215.312C132.874 215.312 145.045 212.232 158.518 206.395C171.542 200.759 184.934 192.949 197.25 183.811C210.075 174.294 220.889 163.928 228.525 153.822C232.616 148.407 235.783 143.089 237.934 138.015C240.214 132.638 241.371 127.493 241.371 122.721C241.371 113.409 236.923 101.309 228.514 87.7333C220.694 75.1089 209.88 61.7819 197.229 49.2007C184.583 36.6196 171.185 25.8596 158.496 18.0829C144.856 9.71162 132.696 5.29091 123.336 5.29091Z" fill="#437AEF" fill-opacity="0.3"/>
<g filter="url(#filter0_f_592_816)">
<path d="M123.336 304.3C113.759 304.3 101.562 301.209 88.062 295.367C75.0215 289.725 61.6134 281.905 49.2862 272.755C36.4456 263.227 25.6155 252.84 17.963 242.724C13.8611 237.298 10.6834 231.964 8.5217 226.867C6.23028 221.463 5.06836 216.286 5.06836 211.487C5.06836 202.137 9.5269 189.994 17.9576 176.38C25.783 163.74 36.6132 150.402 49.2754 137.81C61.9323 125.218 75.3403 114.442 88.0458 106.66C101.735 98.2723 113.938 93.8408 123.336 93.8408C132.734 93.8408 144.937 98.2723 158.626 106.66C171.331 114.447 184.739 125.218 197.396 137.81C210.053 150.402 220.883 163.74 228.709 176.38C237.139 189.994 241.598 202.137 241.598 211.487C241.598 216.286 240.436 221.463 238.144 226.867C235.983 231.958 232.81 237.292 228.703 242.724C221.051 252.846 210.221 263.233 197.38 272.755C185.053 281.905 171.645 289.719 158.604 295.367C145.104 301.209 132.907 304.3 123.33 304.3H123.336ZM123.336 94.0624C113.976 94.0624 101.816 98.4831 88.1593 106.849C75.47 114.626 62.0728 125.386 49.4267 137.967C36.7807 150.548 25.9613 163.87 18.1413 176.499C9.73766 190.08 5.28994 202.181 5.28994 211.492C5.28994 216.264 6.44645 221.409 8.72706 226.786C10.878 231.861 14.0449 237.179 18.1359 242.594C25.7776 252.7 36.5916 263.071 49.4105 272.582C61.7269 281.721 75.1187 289.53 88.1431 295.167C101.616 300.998 113.786 304.084 123.33 304.084C132.874 304.084 145.045 301.003 158.518 295.167C171.542 289.53 184.934 281.721 197.25 272.582C210.075 263.065 220.889 252.7 228.525 242.594C232.616 237.179 235.783 231.861 237.934 226.786C240.214 221.409 241.371 216.264 241.371 211.492C241.371 202.181 236.923 190.08 228.514 176.505C220.694 163.88 209.88 150.553 197.229 137.972C184.583 125.391 171.185 114.631 158.496 106.854C144.845 98.4885 132.68 94.0678 123.32 94.0678L123.336 94.0624Z" fill="#437AEF" fill-opacity="0.5"/>
</g>
<g filter="url(#filter1_f_592_816)">
<path d="M123.336 259.914C113.759 259.914 101.562 256.823 88.062 250.981C75.0214 245.339 61.6134 237.519 49.2862 228.37C36.4456 218.842 25.6155 208.455 17.963 198.338C13.8611 192.912 10.6834 187.578 8.5217 182.482C6.23028 177.078 5.06836 171.9 5.06836 167.101C5.06836 157.752 9.5269 145.608 17.9576 131.995C25.783 119.354 36.6132 106.017 49.2754 93.4246C61.9323 80.8326 75.3403 70.0565 88.0458 62.2743C101.735 53.8868 113.938 49.4553 123.336 49.4553C132.734 49.4553 144.937 53.8868 158.626 62.2743C171.331 70.0619 184.739 80.8326 197.396 93.4246C210.053 106.017 220.883 119.354 228.709 131.995C237.139 145.608 241.598 157.752 241.598 167.101C241.598 171.9 240.436 177.078 238.144 182.482C235.983 187.573 232.81 192.907 228.703 198.338C221.051 208.46 210.22 218.847 197.38 228.37C185.053 237.519 171.645 245.334 158.604 250.981C145.104 256.823 132.907 259.914 123.33 259.914H123.336ZM123.336 49.6769C113.976 49.6769 101.816 54.0976 88.1593 62.4634C75.47 70.2402 62.0728 81.0001 49.4267 93.5813C36.7807 106.163 25.9613 119.484 18.1413 132.114C9.73766 145.695 5.28994 157.795 5.28994 167.107C5.28994 171.879 6.44645 177.024 8.72706 182.401C10.878 187.475 14.0449 192.793 18.1359 198.208C25.7776 208.314 36.5916 218.685 49.4105 228.197C61.7269 237.335 75.1187 245.145 88.1431 250.781C101.616 256.612 113.786 259.698 123.33 259.698C132.874 259.698 145.045 256.618 158.518 250.781C171.542 245.145 184.934 237.335 197.25 228.197C210.075 218.68 220.889 208.314 228.525 198.208C232.616 192.793 235.783 187.475 237.934 182.401C240.214 177.024 241.371 171.879 241.371 167.107C241.371 157.795 236.923 145.695 228.514 132.119C220.694 119.495 209.88 106.168 197.229 93.5867C184.577 81.0055 171.185 70.2456 158.496 62.4688C144.845 54.103 132.68 49.6823 123.32 49.6823L123.336 49.6769Z" fill="#437AEF" fill-opacity="0.5"/>
</g>
<g filter="url(#filter2_f_592_816)">
<path d="M123.336 215.528C113.759 215.528 101.562 212.437 88.062 206.595C75.0214 200.953 61.6134 193.133 49.2862 183.984C36.4456 174.456 25.6155 164.069 17.963 153.952C13.8611 148.526 10.6834 143.192 8.5217 138.096C6.23028 132.692 5.06836 127.514 5.06836 122.715C5.06836 113.366 9.5269 101.222 17.9576 87.609C25.783 74.9684 36.6132 61.6306 49.2754 49.0386C61.9323 36.4466 75.3403 25.6705 88.0458 17.8883C101.729 9.50085 113.938 5.06934 123.336 5.06934C132.734 5.06934 144.937 9.50085 158.626 17.8883C171.331 25.6759 184.739 36.4466 197.396 49.0386C210.053 61.6306 220.883 74.9684 228.709 87.609C237.139 101.222 241.598 113.366 241.598 122.715C241.598 127.514 240.436 132.692 238.144 138.096C235.983 143.187 232.81 148.521 228.703 153.952C221.051 164.074 210.22 174.461 197.38 183.984C185.053 193.133 171.645 200.948 158.604 206.595C145.104 212.437 132.907 215.528 123.33 215.528H123.336ZM123.336 5.29091C113.976 5.29091 101.816 9.71162 88.1593 18.0775C75.47 25.8542 62.0728 36.6142 49.4267 49.1953C36.7807 61.7765 25.9613 75.0981 18.1413 87.7279C9.73766 101.309 5.28994 113.409 5.28994 122.721C5.28994 127.493 6.44645 132.638 8.72706 138.015C10.878 143.089 14.0449 148.407 18.1359 153.822C25.7776 163.928 36.5916 174.299 49.4105 183.811C61.7269 192.949 75.1187 200.759 88.1431 206.395C101.616 212.226 113.786 215.312 123.33 215.312C132.874 215.312 145.045 212.232 158.518 206.395C171.542 200.759 184.934 192.949 197.25 183.811C210.075 174.294 220.889 163.928 228.525 153.822C232.616 148.407 235.783 143.089 237.934 138.015C240.214 132.638 241.371 127.493 241.371 122.721C241.371 113.409 236.923 101.309 228.514 87.7333C220.694 75.1089 209.88 61.7819 197.229 49.2007C184.583 36.6196 171.185 25.8596 158.496 18.0829C144.856 9.71162 132.696 5.29091 123.336 5.29091Z" fill="#437AEF" fill-opacity="0.5"/>
</g>
<defs>
<filter id="filter0_f_592_816" x="-0.000899315" y="88.7716" width="246.668" height="220.598" filterUnits="userSpaceOnUse" color-interpolation-filters="sRGB">
<feFlood flood-opacity="0" result="BackgroundImageFix"/>
<feBlend mode="normal" in="SourceGraphic" in2="BackgroundImageFix" result="shape"/>
<feGaussianBlur stdDeviation="2.53463" result="effect1_foregroundBlur_592_816"/>
</filter>
<filter id="filter1_f_592_816" x="-0.000899315" y="44.3861" width="246.668" height="220.598" filterUnits="userSpaceOnUse" color-interpolation-filters="sRGB">
<feFlood flood-opacity="0" result="BackgroundImageFix"/>
<feBlend mode="normal" in="SourceGraphic" in2="BackgroundImageFix" result="shape"/>
<feGaussianBlur stdDeviation="2.53463" result="effect1_foregroundBlur_592_816"/>
</filter>
<filter id="filter2_f_592_816" x="-0.000899315" y="7.72476e-05" width="246.668" height="220.598" filterUnits="userSpaceOnUse" color-interpolation-filters="sRGB">
<feFlood flood-opacity="0" result="BackgroundImageFix"/>
<feBlend mode="normal" in="SourceGraphic" in2="BackgroundImageFix" result="shape"/>
<feGaussianBlur stdDeviation="2.53463" result="effect1_foregroundBlur_592_816"/>
</filter>
</defs>
</svg>
