<svg width="131" height="131" viewBox="0 0 131 131" fill="none" xmlns="http://www.w3.org/2000/svg">
<path d="M65.2772 130.554C53.4138 130.554 41.7721 129.631 32.5031 127.948C21.8097 126.01 14.5603 123.202 10.9562 119.598C7.35199 115.994 4.54421 108.745 2.60667 98.0512C0.927737 88.7781 0 77.1405 0 65.2771C0 53.4138 0.923632 41.7721 2.60667 32.5031C4.54421 21.8097 7.35199 14.5603 10.9562 10.9562C14.5603 7.35199 21.8097 4.5442 32.5031 2.60665C41.7762 0.927722 53.4138 0 65.2772 0C77.1405 0 88.7822 0.923617 98.0512 2.60665C108.745 4.5442 115.994 7.35199 119.598 10.9562C123.202 14.5603 126.01 21.8097 127.948 32.5031C129.627 41.7762 130.554 53.4138 130.554 65.2771C130.554 77.1405 129.631 88.7822 127.948 98.0512C126.01 108.745 123.202 115.994 119.598 119.598C115.994 123.202 108.745 126.01 98.0512 127.948C88.7781 129.627 77.1405 130.554 65.2772 130.554Z" fill="#437AEF"/>
</svg>
